<mxfile host="65bd71144e">
    <diagram id="4fE2iosNSo_5lBunGO9O" name="Page-1">
        <mxGraphModel dx="1035" dy="768" grid="0" gridSize="10" guides="1" tooltips="1" connect="1" arrows="1" fold="1" page="0" pageScale="1" pageWidth="850" pageHeight="1100" math="0" shadow="0">
            <root>
                <mxCell id="0"/>
                <mxCell id="1" parent="0"/>
                <mxCell id="6" value="" style="swimlane;startSize=0;" vertex="1" parent="1">
                    <mxGeometry x="49" y="148" width="340" height="320" as="geometry"/>
                </mxCell>
                <mxCell id="7" value="host" style="text;html=1;align=center;verticalAlign=middle;resizable=0;points=[];autosize=1;strokeColor=none;fillColor=none;fontStyle=1" vertex="1" parent="6">
                    <mxGeometry x="294" y="2" width="43" height="26" as="geometry"/>
                </mxCell>
                <mxCell id="52" value="" style="swimlane;startSize=0;fillColor=#E5CCFF;" vertex="1" parent="6">
                    <mxGeometry x="40" y="130" width="260" height="160" as="geometry"/>
                </mxCell>
                <mxCell id="53" value="command" style="whiteSpace=wrap;html=1;fillColor=#fff2cc;strokeColor=#d6b656;" vertex="1" parent="52">
                    <mxGeometry x="70" y="30" width="120" height="40" as="geometry"/>
                </mxCell>
                <mxCell id="54" value="command" style="whiteSpace=wrap;html=1;fillColor=#fff2cc;strokeColor=#d6b656;" vertex="1" parent="52">
                    <mxGeometry x="70" y="90" width="120" height="40" as="geometry"/>
                </mxCell>
                <mxCell id="55" value="plugin" style="text;html=1;align=center;verticalAlign=middle;resizable=0;points=[];autosize=1;strokeColor=none;fillColor=none;fontStyle=1" vertex="1" parent="52">
                    <mxGeometry x="203" y="2" width="54" height="26" as="geometry"/>
                </mxCell>
                <mxCell id="58" value="Application" style="whiteSpace=wrap;html=1;fillColor=#dae8fc;strokeColor=#6c8ebf;" vertex="1" parent="6">
                    <mxGeometry x="110" y="30" width="120" height="40" as="geometry"/>
                </mxCell>
                <mxCell id="71" value="load" style="edgeStyle=orthogonalEdgeStyle;html=1;entryX=0.5;entryY=1;entryDx=0;entryDy=0;dashed=1;strokeWidth=2;" edge="1" parent="6" source="52" target="58">
                    <mxGeometry relative="1" as="geometry"/>
                </mxCell>
                <mxCell id="59" style="edgeStyle=entityRelationEdgeStyle;html=1;exitX=0;exitY=0.5;exitDx=0;exitDy=0;entryX=1;entryY=0.25;entryDx=0;entryDy=0;dashed=1;strokeWidth=2;" edge="1" parent="1" source="8" target="6">
                    <mxGeometry relative="1" as="geometry"/>
                </mxCell>
                <mxCell id="64" value="load" style="edgeLabel;html=1;align=center;verticalAlign=middle;resizable=0;points=[];" vertex="1" connectable="0" parent="59">
                    <mxGeometry x="-0.1043" y="5" relative="1" as="geometry">
                        <mxPoint x="-5" y="7" as="offset"/>
                    </mxGeometry>
                </mxCell>
                <mxCell id="8" value="" style="swimlane;startSize=0;fillColor=#E5CCFF;gradientColor=none;swimlaneFillColor=none;fillStyle=auto;labelBackgroundColor=none;" vertex="1" parent="1">
                    <mxGeometry x="529" y="58" width="260" height="160" as="geometry"/>
                </mxCell>
                <mxCell id="10" value="command" style="whiteSpace=wrap;html=1;fillColor=#fff2cc;strokeColor=#d6b656;" vertex="1" parent="8">
                    <mxGeometry x="70" y="30" width="120" height="40" as="geometry"/>
                </mxCell>
                <mxCell id="12" value="command" style="whiteSpace=wrap;html=1;fillColor=#fff2cc;strokeColor=#d6b656;" vertex="1" parent="8">
                    <mxGeometry x="70" y="90" width="120" height="40" as="geometry"/>
                </mxCell>
                <mxCell id="9" value="plugin" style="text;html=1;align=center;verticalAlign=middle;resizable=0;points=[];autosize=1;strokeColor=none;fillColor=none;fontStyle=1" vertex="1" parent="8">
                    <mxGeometry x="203" y="2" width="54" height="26" as="geometry"/>
                </mxCell>
                <mxCell id="72" style="edgeStyle=orthogonalEdgeStyle;html=1;entryX=1;entryY=0.5;entryDx=0;entryDy=0;dashed=1;strokeWidth=2;" edge="1" parent="1" source="36" target="6">
                    <mxGeometry relative="1" as="geometry"/>
                </mxCell>
                <mxCell id="73" value="load" style="edgeLabel;html=1;align=center;verticalAlign=middle;resizable=0;points=[];" vertex="1" connectable="0" parent="72">
                    <mxGeometry x="-0.1429" y="-1" relative="1" as="geometry">
                        <mxPoint x="-10" y="1" as="offset"/>
                    </mxGeometry>
                </mxCell>
                <mxCell id="36" value="" style="swimlane;startSize=0;fillColor=#E5CCFF;" vertex="1" parent="1">
                    <mxGeometry x="529" y="253" width="260" height="110" as="geometry"/>
                </mxCell>
                <mxCell id="37" value="command" style="whiteSpace=wrap;html=1;fillColor=#fff2cc;strokeColor=#d6b656;" vertex="1" parent="36">
                    <mxGeometry x="70" y="35" width="120" height="40" as="geometry"/>
                </mxCell>
                <mxCell id="39" value="plugin" style="text;html=1;align=center;verticalAlign=middle;resizable=0;points=[];autosize=1;strokeColor=none;fillColor=none;fontStyle=1" vertex="1" parent="36">
                    <mxGeometry x="203" y="2" width="54" height="26" as="geometry"/>
                </mxCell>
                <mxCell id="61" style="edgeStyle=entityRelationEdgeStyle;html=1;entryX=1;entryY=0.75;entryDx=0;entryDy=0;dashed=1;exitX=0;exitY=0.5;exitDx=0;exitDy=0;strokeWidth=2;" edge="1" parent="1" source="47" target="6">
                    <mxGeometry relative="1" as="geometry"/>
                </mxCell>
                <mxCell id="62" value="load" style="edgeLabel;html=1;align=center;verticalAlign=middle;resizable=0;points=[];" vertex="1" connectable="0" parent="61">
                    <mxGeometry x="0.0902" relative="1" as="geometry">
                        <mxPoint as="offset"/>
                    </mxGeometry>
                </mxCell>
                <mxCell id="47" value="" style="swimlane;startSize=0;fillColor=#E5CCFF;" vertex="1" parent="1">
                    <mxGeometry x="529" y="398" width="260" height="210" as="geometry"/>
                </mxCell>
                <mxCell id="48" value="command" style="whiteSpace=wrap;html=1;fillColor=#fff2cc;strokeColor=#d6b656;" vertex="1" parent="47">
                    <mxGeometry x="70" y="30" width="120" height="40" as="geometry"/>
                </mxCell>
                <mxCell id="49" value="command" style="whiteSpace=wrap;html=1;fillColor=#fff2cc;strokeColor=#d6b656;" vertex="1" parent="47">
                    <mxGeometry x="70" y="90" width="120" height="40" as="geometry"/>
                </mxCell>
                <mxCell id="51" value="command" style="whiteSpace=wrap;html=1;fillColor=#fff2cc;strokeColor=#d6b656;" vertex="1" parent="47">
                    <mxGeometry x="70" y="150" width="120" height="40" as="geometry"/>
                </mxCell>
                <mxCell id="50" value="plugin" style="text;html=1;align=center;verticalAlign=middle;resizable=0;points=[];autosize=1;strokeColor=none;fillColor=none;fontStyle=1" vertex="1" parent="47">
                    <mxGeometry x="203" y="2" width="54" height="26" as="geometry"/>
                </mxCell>
                <mxCell id="74" value="" style="swimlane;startSize=0;" vertex="1" parent="1">
                    <mxGeometry x="49" y="788" width="340" height="320" as="geometry"/>
                </mxCell>
                <mxCell id="75" value="host" style="text;html=1;align=center;verticalAlign=middle;resizable=0;points=[];autosize=1;strokeColor=none;fillColor=none;fontStyle=1" vertex="1" parent="74">
                    <mxGeometry x="294" y="2" width="43" height="26" as="geometry"/>
                </mxCell>
                <mxCell id="76" value="" style="swimlane;startSize=0;fillColor=#E5CCFF;" vertex="1" parent="74">
                    <mxGeometry x="40" y="130" width="260" height="160" as="geometry"/>
                </mxCell>
                <mxCell id="77" value="command" style="whiteSpace=wrap;html=1;fillColor=#fff2cc;strokeColor=#d6b656;" vertex="1" parent="76">
                    <mxGeometry x="70" y="30" width="120" height="40" as="geometry"/>
                </mxCell>
                <mxCell id="78" value="command" style="whiteSpace=wrap;html=1;fillColor=#fff2cc;strokeColor=#d6b656;" vertex="1" parent="76">
                    <mxGeometry x="70" y="90" width="120" height="40" as="geometry"/>
                </mxCell>
                <mxCell id="79" value="plugin" style="text;html=1;align=center;verticalAlign=middle;resizable=0;points=[];autosize=1;strokeColor=none;fillColor=none;fontStyle=1" vertex="1" parent="76">
                    <mxGeometry x="203" y="2" width="54" height="26" as="geometry"/>
                </mxCell>
                <mxCell id="80" value="Application" style="whiteSpace=wrap;html=1;fillColor=#dae8fc;strokeColor=#6c8ebf;" vertex="1" parent="74">
                    <mxGeometry x="110" y="30" width="120" height="40" as="geometry"/>
                </mxCell>
                <mxCell id="81" value="dispatch" style="edgeStyle=orthogonalEdgeStyle;html=1;entryX=0.5;entryY=0;entryDx=0;entryDy=0;dashed=1;strokeWidth=2;" edge="1" parent="74" target="76">
                    <mxGeometry relative="1" as="geometry">
                        <mxPoint x="170" y="70" as="sourcePoint"/>
                    </mxGeometry>
                </mxCell>
                <mxCell id="82" style="edgeStyle=entityRelationEdgeStyle;html=1;dashed=1;exitX=1;exitY=0.25;exitDx=0;exitDy=0;strokeWidth=2;" edge="1" parent="1" source="74" target="84">
                    <mxGeometry relative="1" as="geometry">
                        <mxPoint x="419" y="728" as="sourcePoint"/>
                    </mxGeometry>
                </mxCell>
                <mxCell id="83" value="dispatch" style="edgeLabel;html=1;align=center;verticalAlign=middle;resizable=0;points=[];" vertex="1" connectable="0" parent="82">
                    <mxGeometry x="-0.1043" y="5" relative="1" as="geometry">
                        <mxPoint y="1" as="offset"/>
                    </mxGeometry>
                </mxCell>
                <mxCell id="84" value="" style="swimlane;startSize=0;fillColor=#E5CCFF;gradientColor=none;swimlaneFillColor=none;fillStyle=auto;labelBackgroundColor=none;" vertex="1" parent="1">
                    <mxGeometry x="529" y="698" width="260" height="160" as="geometry"/>
                </mxCell>
                <mxCell id="85" value="command" style="whiteSpace=wrap;html=1;fillColor=#fff2cc;strokeColor=#d6b656;" vertex="1" parent="84">
                    <mxGeometry x="70" y="30" width="120" height="40" as="geometry"/>
                </mxCell>
                <mxCell id="86" value="command" style="whiteSpace=wrap;html=1;fillColor=#fff2cc;strokeColor=#d6b656;" vertex="1" parent="84">
                    <mxGeometry x="70" y="90" width="120" height="40" as="geometry"/>
                </mxCell>
                <mxCell id="87" value="plugin" style="text;html=1;align=center;verticalAlign=middle;resizable=0;points=[];autosize=1;strokeColor=none;fillColor=none;fontStyle=1" vertex="1" parent="84">
                    <mxGeometry x="203" y="2" width="54" height="26" as="geometry"/>
                </mxCell>
                <mxCell id="88" style="edgeStyle=orthogonalEdgeStyle;html=1;entryX=0;entryY=0.5;entryDx=0;entryDy=0;dashed=1;strokeWidth=2;" edge="1" parent="1" source="74" target="90">
                    <mxGeometry relative="1" as="geometry">
                        <mxPoint x="479" y="898" as="sourcePoint"/>
                    </mxGeometry>
                </mxCell>
                <mxCell id="89" value="dispatch" style="edgeLabel;html=1;align=center;verticalAlign=middle;resizable=0;points=[];" vertex="1" connectable="0" parent="88">
                    <mxGeometry x="-0.1429" y="-1" relative="1" as="geometry">
                        <mxPoint y="-11" as="offset"/>
                    </mxGeometry>
                </mxCell>
                <mxCell id="90" value="" style="swimlane;startSize=0;fillColor=#E5CCFF;" vertex="1" parent="1">
                    <mxGeometry x="529" y="893" width="260" height="110" as="geometry"/>
                </mxCell>
                <mxCell id="91" value="command" style="whiteSpace=wrap;html=1;fillColor=#fff2cc;strokeColor=#d6b656;" vertex="1" parent="90">
                    <mxGeometry x="70" y="35" width="120" height="40" as="geometry"/>
                </mxCell>
                <mxCell id="92" value="plugin" style="text;html=1;align=center;verticalAlign=middle;resizable=0;points=[];autosize=1;strokeColor=none;fillColor=none;fontStyle=1" vertex="1" parent="90">
                    <mxGeometry x="203" y="2" width="54" height="26" as="geometry"/>
                </mxCell>
                <mxCell id="93" style="edgeStyle=entityRelationEdgeStyle;html=1;dashed=1;exitX=1;exitY=0.75;exitDx=0;exitDy=0;entryX=0;entryY=0.5;entryDx=0;entryDy=0;strokeWidth=2;" edge="1" parent="1" source="74" target="95">
                    <mxGeometry relative="1" as="geometry">
                        <mxPoint x="499" y="1058" as="targetPoint"/>
                    </mxGeometry>
                </mxCell>
                <mxCell id="94" value="dispatch" style="edgeLabel;html=1;align=center;verticalAlign=middle;resizable=0;points=[];" vertex="1" connectable="0" parent="93">
                    <mxGeometry x="0.0902" relative="1" as="geometry">
                        <mxPoint x="-5" y="-5" as="offset"/>
                    </mxGeometry>
                </mxCell>
                <mxCell id="95" value="" style="swimlane;startSize=0;fillColor=#E5CCFF;" vertex="1" parent="1">
                    <mxGeometry x="529" y="1038" width="260" height="210" as="geometry"/>
                </mxCell>
                <mxCell id="96" value="command" style="whiteSpace=wrap;html=1;fillColor=#fff2cc;strokeColor=#d6b656;" vertex="1" parent="95">
                    <mxGeometry x="70" y="30" width="120" height="40" as="geometry"/>
                </mxCell>
                <mxCell id="97" value="command" style="whiteSpace=wrap;html=1;fillColor=#fff2cc;strokeColor=#d6b656;" vertex="1" parent="95">
                    <mxGeometry x="70" y="90" width="120" height="40" as="geometry"/>
                </mxCell>
                <mxCell id="98" value="command" style="whiteSpace=wrap;html=1;fillColor=#fff2cc;strokeColor=#d6b656;" vertex="1" parent="95">
                    <mxGeometry x="70" y="150" width="120" height="40" as="geometry"/>
                </mxCell>
                <mxCell id="99" value="plugin" style="text;html=1;align=center;verticalAlign=middle;resizable=0;points=[];autosize=1;strokeColor=none;fillColor=none;fontStyle=1" vertex="1" parent="95">
                    <mxGeometry x="203" y="2" width="54" height="26" as="geometry"/>
                </mxCell>
                <mxCell id="102" style="edgeStyle=orthogonalEdgeStyle;html=1;dashed=1;strokeWidth=2;" edge="1" parent="1" target="74">
                    <mxGeometry relative="1" as="geometry">
                        <mxPoint x="219" y="678" as="sourcePoint"/>
                        <mxPoint x="538" y="727" as="targetPoint"/>
                    </mxGeometry>
                </mxCell>
                <mxCell id="103" value="Command line parameters" style="edgeLabel;html=1;align=center;verticalAlign=middle;resizable=0;points=[];" vertex="1" connectable="0" parent="102">
                    <mxGeometry x="-0.1429" y="-1" relative="1" as="geometry">
                        <mxPoint x="1" y="3" as="offset"/>
                    </mxGeometry>
                </mxCell>
            </root>
        </mxGraphModel>
    </diagram>
</mxfile>